<svg fill="none" height="150" viewBox="0 0 400 150" width="400" xmlns="http://www.w3.org/2000/svg"><g fill="currentColor"><path d="m99.1099 35.44c-.072-5.688 4.1041-8.28 8.6401-8.28 6.768 0 11.232 5.112 15.624 13.176l.576-.36-2.736-12.816h-.72l-2.304 1.8c-2.448-1.44-5.832-2.52-10.44-2.52-9.7921 0-16.8481 5.976-16.8481 14.472 0 18.864 26.4241 11.952 26.4241 28.152 0 7.272-4.968 9.936-10.224 9.936-9.1441 0-14.1841-7.704-16.4161-15.84h-.72v15.84h.72l3.024-3.384c3.528 2.52 7.6321 4.104 13.0321 4.104 10.08 0 18.504-5.616 18.504-15.48 0-19.584-26.1361-12.816-26.1361-28.8zm55.9011 38.736c-1.44 1.584-3.456 2.88-5.904 2.88-4.464 0-6.624-1.944-6.624-7.92v-24.48h11.52v-1.656h-11.52v-8.64h-.72l-12.456 9.576v.72h4.536v24.768c0 6.048 3.024 10.296 10.08 10.296 5.616 0 9.576-2.808 11.52-5.112zm36.159-3.96v-27.216h-13.896v.72c4.896 0 5.256.36 5.256 5.976v21.744c-1.728 1.152-4.392 2.52-7.776 2.52-3.96 0-6.12-2.16-6.12-6.48v-24.48h-13.176v.72c4.176 0 4.536.36 4.536 5.976v19.944c0 5.832 2.952 10.08 10.08 10.08 5.544 0 9.864-3.888 12.456-7.56l.72 7.56h.72l11.808-2.376v-.72c-4.248 0-4.608-.36-4.608-6.408zm31.45-27.936c-5.616 0-9.72 4.104-11.376 7.488v-24.768h-.72l-12.456 3.6v.72c4.176 1.944 4.536 2.304 4.536 7.56v42.12h.72l4.824-3.96c3.384 3.6 7.92 4.68 11.736 4.68 9.792 0 17.28-6.912 17.28-18.936 0-11.448-6.192-18.504-14.544-18.504zm-2.88 36.72c-4.248 0-8.496-2.808-8.496-15.336v-13.104c1.512-1.584 4.104-3.456 8.064-3.456 5.112 0 8.856 3.816 8.856 14.472 0 12.168-3.096 17.424-8.424 17.424zm45.489-36.72c-5.616 0-9.72 4.104-11.376 7.488v-24.768h-.72l-12.456 3.6v.72c4.176 1.944 4.536 2.304 4.536 7.56v42.12h.72l4.824-3.96c3.384 3.6 7.92 4.68 11.736 4.68 9.792 0 17.28-6.912 17.28-18.936 0-11.448-6.192-18.504-14.544-18.504zm-2.88 36.72c-4.248 0-8.496-2.808-8.496-15.336v-13.104c1.512-1.584 4.104-3.456 8.064-3.456 5.112 0 8.856 3.816 8.856 14.472 0 12.168-3.096 17.424-8.424 17.424zm48.01-26.424.504-.216-2.16-8.352c-3.024-1.008-6.696-1.728-10.8-1.728-7.992 0-12.816 4.32-12.816 10.296 0 13.608 19.584 9.504 19.584 20.232 0 3.96-3.096 6.192-6.984 6.192-5.112 0-7.776-2.88-13.032-9.648l-.576.288 2.376 8.424c2.88 1.08 7.344 1.656 11.016 1.656 8.856 0 14.328-4.176 14.328-11.304 0-13.392-19.8-9.36-19.8-19.728 0-4.104 3.096-5.688 5.832-5.688 4.392 0 7.272 2.52 12.528 9.576z"/><path d="m128.249 122.84v-12.96c0-1.68.12-1.92 1.92-1.92v-.24h-6.48v.24c1.8 0 1.92.24 1.92 1.92v6.24h-8.64v-6.24c0-1.68.12-1.92 1.92-1.92v-.24h-6.48v.24c1.8 0 1.92.24 1.92 1.92v12.96c0 1.68-.12 1.92-1.92 1.92v.24h6.48v-.24c-1.8 0-1.92-.24-1.92-1.92v-6.48h8.64v6.48c0 1.68-.12 1.92-1.92 1.92v.24h6.48v-.24c-1.8 0-1.92-.24-1.92-1.92zm9.787 1.44c-2.448 0-4.128-2.208-4.128-5.64 0-.552.024-1.08.096-1.56h8.304c-.48-2.904-2.352-4.32-4.92-4.32-3.576 0-5.76 2.544-5.76 6.24s2.184 6.24 5.76 6.24c3.072 0 4.44-2.16 4.92-4.08l-.216-.048c-.456 1.8-1.728 3.168-4.056 3.168zm-.72-11.28c1.368 0 2.376.792 2.568 3.84h-5.856c.384-2.448 1.584-3.84 3.288-3.84zm9.442 12.24c1.512 0 2.712-.888 3.816-2.28 0 1.56.888 2.28 2.04 2.28.96 0 1.92-.6 2.52-2.28l-.192-.072c-.24.624-.6 1.392-1.368 1.392-.528 0-.84-.36-.84-.96v-8.16c0-1.824-.936-2.4-2.52-2.4-1.056 0-2.16.384-3.744 1.368-1.8 1.128-2.256 1.776-2.256 2.448 0 .6.384.984.96.984 1.104 0 1.44-.984 1.44-3.264.504-.312 1.272-.84 2.4-.84 1.056 0 1.56.552 1.56 1.68v2.784c-4.56 2.232-6.24 3.144-6.24 4.824 0 1.56.96 2.496 2.424 2.496zm1.536-1.08c-.984 0-1.8-.672-1.8-2.04 0-1.68.84-2.496 4.08-3.96v4.56c-.624.72-1.296 1.44-2.28 1.44zm18.579-17.16-3.6 1.2v.24c1.56.72 1.68.84 1.68 2.52v2.904c-1.032-.84-2.28-1.104-3.36-1.104-3.336 0-5.52 2.544-5.52 6.24s2.184 6.24 5.04 6.24c1.872 0 3.24-1.392 3.84-2.424l.24 2.424h.24l3.36-.72v-.24c-1.56 0-1.68-.12-1.68-2.04v-15.24zm-5.112 16.92c-1.848 0-3.408-1.368-3.408-5.04 0-3.936 1.32-5.88 3.288-5.88 1.368 0 3.312.696 3.312 4.68v4.872c-.576.6-1.56 1.368-3.192 1.368zm19.153 1.32c3.6 0 5.88-2.76 5.88-6.24s-2.28-6.24-5.88-6.24-5.88 2.76-5.88 6.24 2.28 6.24 5.88 6.24zm0-.24c-2.4 0-3.6-2.28-3.6-6s1.2-6 3.6-6 3.6 2.28 3.6 6-1.2 6-3.6 6zm14.504-18c-1.224 0-5.28.552-5.28 6l-1.68.24v.24h1.68v9.36c0 1.8-.12 1.92-1.68 1.92v.24h5.76v-.24c-1.8 0-1.92-.12-1.92-1.92v-9.36h3.36v-.48h-3.36v-1.272c0-2.928.696-4.488 2.4-4.488.744 1.464 1.176 2.4 2.136 2.4.48 0 .984-.336.984-1.08 0-1.08-1.176-1.56-2.4-1.56zm8.527 3.6c-.024-2.088 1.512-2.88 2.976-2.88 1.896 0 3.432 1.2 5.112 4.2l.192-.12-.936-4.08h-.24l-.672.6c-.768-.456-1.872-.84-3.432-.84-2.976 0-5.16 1.896-5.16 4.584 0 6.216 8.88 3.816 8.88 9.336 0 2.688-1.848 3.6-3.672 3.6-2.88 0-4.584-2.256-5.328-5.28h-.24v5.28h.24l.936-1.128c1.152.816 2.472 1.368 4.248 1.368 3.096 0 5.856-1.8 5.856-5.04 0-6.6-8.76-4.032-8.76-9.6zm17.06 13.68c-2.448 0-4.128-2.208-4.128-5.64 0-.552.024-1.08.096-1.56h8.304c-.48-2.904-2.352-4.32-4.92-4.32-3.576 0-5.76 2.544-5.76 6.24s2.184 6.24 5.76 6.24c3.072 0 4.44-2.16 4.92-4.08l-.216-.048c-.456 1.8-1.728 3.168-4.056 3.168zm-.72-11.28c1.368 0 2.376.792 2.568 3.84h-5.856c.384-2.448 1.584-3.84 3.288-3.84zm12.898-.24c-3.576 0-6 2.544-6 6.24s2.184 6.24 5.76 6.24c3.072 0 4.44-2.16 4.92-4.08l-.216-.048c-.336 1.248-1.248 3.168-4.056 3.168-2.448 0-4.128-2.208-4.128-5.64 0-3.216 1.224-5.64 3.648-5.64.432 0 .768.048 1.152.192.504 2.136 1.248 2.688 2.112 2.688.792 0 1.128-.552 1.128-1.08 0-1.416-1.752-2.04-4.32-2.04zm16.8 9.48v-9.24h-4.08v.24c1.8 0 1.92.12 1.92 1.92v7.392c-.672.48-1.584 1.008-3 1.008-1.32 0-2.28-.648-2.28-2.4v-8.16h-3.84v.24c1.56 0 1.68.12 1.68 1.92v6.72c0 1.944.912 3.36 3.24 3.36 1.896 0 3.336-1.344 4.2-2.448l.24 2.448h.24l3.36-.72v-.24c-1.56 0-1.68-.12-1.68-2.04zm9.578-9.48c-1.296 0-2.16 1.44-2.88 2.76l-.24-2.76h-.24l-3.36 1.68v.24c1.56.48 1.68.6 1.68 2.28v5.88c0 1.8-.12 1.92-1.68 1.92v.24h5.76v-.24c-1.8 0-1.92-.12-1.92-1.92v-7.08c.528-.696.888-1.056 1.44-1.44.384.576.888 1.08 1.68 1.08.696 0 1.2-.552 1.2-1.296 0-.888-.672-1.344-1.44-1.344zm4.806-2.88c.864 0 1.56-.576 1.56-1.44s-.696-1.44-1.56-1.44-1.56.576-1.56 1.44.696 1.44 1.56 1.44zm1.08 12.96v-10.08h-.24l-3.6 1.68v.24c1.56.48 1.68.6 1.68 2.28v5.88c0 1.8-.12 1.92-1.68 1.92v.24h5.52v-.24c-1.56 0-1.68-.12-1.68-1.92zm10.879.816c-.528.48-1.176.864-2.016.864-1.56 0-2.4-.528-2.4-3v-8.04h4.08v-.48h-4.08v-2.88h-.24l-3.6 3.12v.24h1.68v8.4c0 1.944.912 3.36 3.12 3.36 1.8 0 2.928-.792 3.6-1.44zm8.675-10.656v.24c1.56 0 2.016.744 1.44 2.4l-2.568 7.56-3.312-8.04c-.528-1.272-.12-1.92 1.44-1.92v-.24h-5.64v.24c1.08 0 1.416.672 1.92 1.92l4.536 11.064c-1.104 2.952-2.28 4.392-3.696 4.536-.6-1.464-.96-2.16-1.776-2.16-.48 0-.984.336-.984 1.008 0 .912.816 1.392 2.16 1.392 1.944 0 3.264-1.104 4.872-5.76l3.288-9.6c.528-1.56 1.32-2.4 2.64-2.4v-.24z"/></g></svg>